<mxfile host="app.diagrams.net" modified="2021-05-12T01:37:40.193Z" agent="5.0 (Windows NT 10.0; Win64; x64) AppleWebKit/537.36 (KHTML, like Gecko) Chrome/90.0.4430.93 Safari/537.36" etag="IbGZcQjhuZM_sz3Lkeq5" version="14.6.11" type="github" pages="3">
  <diagram id="bFpIVnSWmbpKtarar5AM" name="Page-1">
    <mxGraphModel dx="1422" dy="737" grid="1" gridSize="10" guides="1" tooltips="1" connect="1" arrows="1" fold="1" page="1" pageScale="1" pageWidth="850" pageHeight="1100" math="0" shadow="0">
      <root>
        <mxCell id="0" />
        <mxCell id="1" parent="0" />
        <mxCell id="RLX0O87AHo1X2uDr3v8D-2" value="" style="strokeWidth=1;shadow=0;dashed=0;align=center;html=1;shape=mxgraph.mockup.containers.browserWindow;rSize=0;strokeColor=#666666;strokeColor2=#008cff;strokeColor3=#c4c4c4;mainText=,;recursiveResize=0;" parent="1" vertex="1">
          <mxGeometry width="890" height="980" as="geometry" />
        </mxCell>
        <mxCell id="hH14rQv0smcwNjKOGaZG-1" value="" style="rounded=0;whiteSpace=wrap;html=1;fillColor=#336600;" parent="RLX0O87AHo1X2uDr3v8D-2" vertex="1">
          <mxGeometry y="97.5" width="820" height="795" as="geometry" />
        </mxCell>
        <mxCell id="RLX0O87AHo1X2uDr3v8D-3" value="Page 1" style="strokeWidth=1;shadow=0;dashed=0;align=center;html=1;shape=mxgraph.mockup.containers.anchor;fontSize=17;fontColor=#666666;align=left;" parent="RLX0O87AHo1X2uDr3v8D-2" vertex="1">
          <mxGeometry x="60" y="12" width="110" height="26" as="geometry" />
        </mxCell>
        <mxCell id="RLX0O87AHo1X2uDr3v8D-4" value="https://www.draw.io" style="strokeWidth=1;shadow=0;dashed=0;align=center;html=1;shape=mxgraph.mockup.containers.anchor;rSize=0;fontSize=17;fontColor=#666666;align=left;" parent="RLX0O87AHo1X2uDr3v8D-2" vertex="1">
          <mxGeometry x="130" y="60" width="250" height="26" as="geometry" />
        </mxCell>
        <mxCell id="RLX0O87AHo1X2uDr3v8D-5" value="hobbies and interest&amp;nbsp; &amp;nbsp; &amp;nbsp; &amp;nbsp; &amp;nbsp; &amp;nbsp; &amp;nbsp; &amp;nbsp; &amp;nbsp; &amp;nbsp; &amp;nbsp; &amp;nbsp; &amp;nbsp; &amp;nbsp; &amp;nbsp; &amp;nbsp; &amp;nbsp; &amp;nbsp; &amp;nbsp; &amp;nbsp; &amp;nbsp; culture&amp;nbsp; &amp;nbsp; &amp;nbsp; &amp;nbsp; &amp;nbsp; &amp;nbsp; &amp;nbsp; &amp;nbsp; &amp;nbsp; &amp;nbsp; &amp;nbsp; &amp;nbsp; &amp;nbsp;contact me&amp;nbsp;" style="rounded=0;whiteSpace=wrap;html=1;" parent="RLX0O87AHo1X2uDr3v8D-2" vertex="1">
          <mxGeometry x="30" y="120" width="750" height="40" as="geometry" />
        </mxCell>
        <mxCell id="RLX0O87AHo1X2uDr3v8D-6" value="homepage" style="text;html=1;strokeColor=none;fillColor=none;align=center;verticalAlign=middle;whiteSpace=wrap;rounded=0;" parent="RLX0O87AHo1X2uDr3v8D-2" vertex="1">
          <mxGeometry x="60" y="135" width="120" height="10" as="geometry" />
        </mxCell>
        <mxCell id="RLX0O87AHo1X2uDr3v8D-8" value="" style="whiteSpace=wrap;html=1;aspect=fixed;" parent="RLX0O87AHo1X2uDr3v8D-2" vertex="1">
          <mxGeometry x="40" y="200" width="140" height="140" as="geometry" />
        </mxCell>
        <mxCell id="RLX0O87AHo1X2uDr3v8D-9" value="" style="shape=image;html=1;verticalAlign=top;verticalLabelPosition=bottom;labelBackgroundColor=#ffffff;imageAspect=0;aspect=fixed;image=https://cdn3.iconfinder.com/data/icons/outline-amenities-icon-set/64/Wheelchair_Accessible-128.png" parent="RLX0O87AHo1X2uDr3v8D-2" vertex="1">
          <mxGeometry x="46" y="206" width="128" height="128" as="geometry" />
        </mxCell>
        <mxCell id="RLX0O87AHo1X2uDr3v8D-10" value="" style="rounded=0;whiteSpace=wrap;html=1;" parent="RLX0O87AHo1X2uDr3v8D-2" vertex="1">
          <mxGeometry x="220" y="200" width="540" height="140" as="geometry" />
        </mxCell>
        <mxCell id="RLX0O87AHo1X2uDr3v8D-11" value="" style="rounded=0;whiteSpace=wrap;html=1;" parent="RLX0O87AHo1X2uDr3v8D-2" vertex="1">
          <mxGeometry x="46" y="390" width="760" height="210" as="geometry" />
        </mxCell>
        <mxCell id="RLX0O87AHo1X2uDr3v8D-13" value="" style="rounded=0;whiteSpace=wrap;html=1;" parent="RLX0O87AHo1X2uDr3v8D-2" vertex="1">
          <mxGeometry x="51" y="640" width="750" height="90" as="geometry" />
        </mxCell>
        <mxCell id="hH14rQv0smcwNjKOGaZG-3" value="&lt;font color=&quot;#ffffff&quot;&gt;006600&lt;/font&gt;" style="text;html=1;strokeColor=none;fillColor=none;align=center;verticalAlign=middle;whiteSpace=wrap;rounded=0;" parent="RLX0O87AHo1X2uDr3v8D-2" vertex="1">
          <mxGeometry x="405" y="360" width="40" height="20" as="geometry" />
        </mxCell>
        <mxCell id="hH14rQv0smcwNjKOGaZG-12" value="&lt;font color=&quot;#ffffff&quot;&gt;006600&lt;/font&gt;" style="text;html=1;strokeColor=none;fillColor=none;align=center;verticalAlign=middle;whiteSpace=wrap;rounded=0;" parent="RLX0O87AHo1X2uDr3v8D-2" vertex="1">
          <mxGeometry x="410" y="610" width="40" height="20" as="geometry" />
        </mxCell>
        <mxCell id="hH14rQv0smcwNjKOGaZG-13" value="&lt;font color=&quot;#ffffff&quot;&gt;006600&lt;/font&gt;" style="text;html=1;strokeColor=none;fillColor=none;align=center;verticalAlign=middle;whiteSpace=wrap;rounded=0;" parent="RLX0O87AHo1X2uDr3v8D-2" vertex="1">
          <mxGeometry x="410" y="730" width="40" height="20" as="geometry" />
        </mxCell>
      </root>
    </mxGraphModel>
  </diagram>
  <diagram id="dFLI1lpX5JLcjOJSAYpg" name="Page-2">
    <mxGraphModel dx="1422" dy="1837" grid="1" gridSize="10" guides="1" tooltips="1" connect="1" arrows="1" fold="1" page="1" pageScale="1" pageWidth="850" pageHeight="1100" math="0" shadow="0">
      <root>
        <mxCell id="2JNyHVt5EZAfus-DQZLQ-0" />
        <mxCell id="2JNyHVt5EZAfus-DQZLQ-1" parent="2JNyHVt5EZAfus-DQZLQ-0" />
        <mxCell id="4x_K6ibl253Q6bfpay4V-3" value="" style="strokeWidth=1;shadow=0;dashed=0;align=center;html=1;shape=mxgraph.mockup.containers.browserWindow;rSize=0;strokeColor=#666666;strokeColor2=#008cff;strokeColor3=#c4c4c4;mainText=,;recursiveResize=0;fillColor=#FFFFFF;" parent="2JNyHVt5EZAfus-DQZLQ-1" vertex="1">
          <mxGeometry x="10" y="-200" width="850" height="1010" as="geometry" />
        </mxCell>
        <mxCell id="4x_K6ibl253Q6bfpay4V-4" value="Page 1" style="strokeWidth=1;shadow=0;dashed=0;align=center;html=1;shape=mxgraph.mockup.containers.anchor;fontSize=17;fontColor=#666666;align=left;" parent="4x_K6ibl253Q6bfpay4V-3" vertex="1">
          <mxGeometry x="60" y="12" width="110" height="26" as="geometry" />
        </mxCell>
        <mxCell id="4x_K6ibl253Q6bfpay4V-5" value="https://www.draw.io" style="strokeWidth=1;shadow=0;dashed=0;align=center;html=1;shape=mxgraph.mockup.containers.anchor;rSize=0;fontSize=17;fontColor=#666666;align=left;" parent="4x_K6ibl253Q6bfpay4V-3" vertex="1">
          <mxGeometry x="130" y="60" width="250" height="26" as="geometry" />
        </mxCell>
        <mxCell id="UmFPCOjtF5gXU13UrcrJ-0" value="" style="rounded=0;whiteSpace=wrap;html=1;fillColor=#336600;" parent="4x_K6ibl253Q6bfpay4V-3" vertex="1">
          <mxGeometry x="50" y="120" width="750" height="850" as="geometry" />
        </mxCell>
        <mxCell id="KuSsMDldDx0AEziX7loD-0" value="" style="rounded=0;whiteSpace=wrap;html=1;fillColor=#FFFFFF;" parent="4x_K6ibl253Q6bfpay4V-3" vertex="1">
          <mxGeometry x="340" y="400" width="450" height="120" as="geometry" />
        </mxCell>
        <mxCell id="KuSsMDldDx0AEziX7loD-1" value="" style="verticalLabelPosition=bottom;shadow=0;dashed=0;align=center;html=1;verticalAlign=top;strokeWidth=1;shape=mxgraph.mockup.containers.userFemale;strokeColor=#666666;strokeColor2=#008cff;fillColor=#FFFFFF;" parent="4x_K6ibl253Q6bfpay4V-3" vertex="1">
          <mxGeometry x="70" y="210" width="170" height="150" as="geometry" />
        </mxCell>
        <mxCell id="KuSsMDldDx0AEziX7loD-2" value="" style="rounded=0;whiteSpace=wrap;html=1;fillColor=#FFFFFF;" parent="4x_K6ibl253Q6bfpay4V-3" vertex="1">
          <mxGeometry x="340" y="530" width="450" height="110" as="geometry" />
        </mxCell>
        <mxCell id="KuSsMDldDx0AEziX7loD-3" value="" style="rounded=0;whiteSpace=wrap;html=1;fillColor=#FFFFFF;" parent="4x_K6ibl253Q6bfpay4V-3" vertex="1">
          <mxGeometry x="340" y="660" width="450" height="100" as="geometry" />
        </mxCell>
        <mxCell id="KuSsMDldDx0AEziX7loD-4" value="" style="whiteSpace=wrap;html=1;aspect=fixed;fillColor=#FFFFFF;" parent="4x_K6ibl253Q6bfpay4V-3" vertex="1">
          <mxGeometry x="70" y="580" width="140" height="140" as="geometry" />
        </mxCell>
        <mxCell id="KuSsMDldDx0AEziX7loD-5" value="" style="whiteSpace=wrap;html=1;aspect=fixed;fillColor=#FFFFFF;gradientColor=#ffffff;" parent="4x_K6ibl253Q6bfpay4V-3" vertex="1">
          <mxGeometry x="70" y="430" width="140" height="140" as="geometry" />
        </mxCell>
        <mxCell id="Q__gk6zVcUSYNiBU09Oj-0" value="" style="whiteSpace=wrap;html=1;aspect=fixed;" vertex="1" parent="4x_K6ibl253Q6bfpay4V-3">
          <mxGeometry x="67.5" y="730" width="140" height="140" as="geometry" />
        </mxCell>
        <mxCell id="Q__gk6zVcUSYNiBU09Oj-1" value="" style="rounded=0;whiteSpace=wrap;html=1;" vertex="1" parent="4x_K6ibl253Q6bfpay4V-3">
          <mxGeometry x="70" y="130" width="710" height="60" as="geometry" />
        </mxCell>
        <mxCell id="Q__gk6zVcUSYNiBU09Oj-2" value="homepage" style="text;html=1;strokeColor=none;fillColor=none;align=center;verticalAlign=middle;whiteSpace=wrap;rounded=0;" vertex="1" parent="4x_K6ibl253Q6bfpay4V-3">
          <mxGeometry x="110" y="150" width="40" height="20" as="geometry" />
        </mxCell>
        <mxCell id="Q__gk6zVcUSYNiBU09Oj-3" value="hobbies and interest&amp;nbsp; &amp;nbsp; &amp;nbsp; &amp;nbsp; &amp;nbsp; &amp;nbsp;culture&amp;nbsp; &amp;nbsp; &amp;nbsp; &amp;nbsp; &amp;nbsp; &amp;nbsp; &amp;nbsp; &amp;nbsp; &amp;nbsp; &amp;nbsp; &amp;nbsp; contact me&amp;nbsp;" style="text;html=1;strokeColor=none;fillColor=none;align=center;verticalAlign=middle;whiteSpace=wrap;rounded=0;" vertex="1" parent="4x_K6ibl253Q6bfpay4V-3">
          <mxGeometry x="190" y="150" width="430" height="20" as="geometry" />
        </mxCell>
        <mxCell id="Q__gk6zVcUSYNiBU09Oj-4" value="336600" style="text;html=1;strokeColor=none;fillColor=none;align=center;verticalAlign=middle;whiteSpace=wrap;rounded=0;shadow=0;" vertex="1" parent="4x_K6ibl253Q6bfpay4V-3">
          <mxGeometry x="360" y="860" width="40" height="20" as="geometry" />
        </mxCell>
        <mxCell id="Q__gk6zVcUSYNiBU09Oj-6" value="pictureOne" style="text;html=1;strokeColor=none;fillColor=none;align=center;verticalAlign=middle;whiteSpace=wrap;rounded=0;shadow=0;" vertex="1" parent="4x_K6ibl253Q6bfpay4V-3">
          <mxGeometry x="97.5" y="490" width="80" height="20" as="geometry" />
        </mxCell>
        <mxCell id="Q__gk6zVcUSYNiBU09Oj-7" value="pictureTwo" style="text;html=1;strokeColor=none;fillColor=none;align=center;verticalAlign=middle;whiteSpace=wrap;rounded=0;shadow=0;" vertex="1" parent="4x_K6ibl253Q6bfpay4V-3">
          <mxGeometry x="102.5" y="640" width="70" height="20" as="geometry" />
        </mxCell>
        <mxCell id="Q__gk6zVcUSYNiBU09Oj-9" value="informationOne" style="text;html=1;strokeColor=none;fillColor=none;align=center;verticalAlign=middle;whiteSpace=wrap;rounded=0;shadow=0;" vertex="1" parent="4x_K6ibl253Q6bfpay4V-3">
          <mxGeometry x="380" y="440" width="80" height="20" as="geometry" />
        </mxCell>
        <mxCell id="Q__gk6zVcUSYNiBU09Oj-10" value="informationThree" style="text;html=1;strokeColor=none;fillColor=none;align=center;verticalAlign=middle;whiteSpace=wrap;rounded=0;shadow=0;" vertex="1" parent="4x_K6ibl253Q6bfpay4V-3">
          <mxGeometry x="370" y="700" width="80" height="20" as="geometry" />
        </mxCell>
        <mxCell id="Q__gk6zVcUSYNiBU09Oj-12" value="pictureThree" style="text;html=1;strokeColor=none;fillColor=none;align=center;verticalAlign=middle;whiteSpace=wrap;rounded=0;shadow=0;" vertex="1" parent="4x_K6ibl253Q6bfpay4V-3">
          <mxGeometry x="120" y="780" width="40" height="20" as="geometry" />
        </mxCell>
        <mxCell id="Q__gk6zVcUSYNiBU09Oj-5" value="informationTwo" style="text;html=1;strokeColor=none;fillColor=none;align=center;verticalAlign=middle;whiteSpace=wrap;rounded=0;shadow=0;" vertex="1" parent="2JNyHVt5EZAfus-DQZLQ-1">
          <mxGeometry x="390" y="370" width="80" height="20" as="geometry" />
        </mxCell>
      </root>
    </mxGraphModel>
  </diagram>
  <diagram id="k_Gd7NEQz9u_4j353e64" name="Page-3">
    <mxGraphModel dx="1422" dy="1837" grid="1" gridSize="10" guides="1" tooltips="1" connect="1" arrows="1" fold="1" page="1" pageScale="1" pageWidth="850" pageHeight="1100" math="0" shadow="0">
      <root>
        <mxCell id="MkLi55oCJSR5UWqO5x4M-0" />
        <mxCell id="MkLi55oCJSR5UWqO5x4M-1" parent="MkLi55oCJSR5UWqO5x4M-0" />
        <mxCell id="MkLi55oCJSR5UWqO5x4M-2" value="" style="strokeWidth=1;shadow=0;dashed=0;align=center;html=1;shape=mxgraph.mockup.containers.browserWindow;rSize=0;strokeColor=#666666;strokeColor2=#008cff;strokeColor3=#c4c4c4;mainText=,;recursiveResize=0;fillColor=#FFFFFF;" vertex="1" parent="MkLi55oCJSR5UWqO5x4M-1">
          <mxGeometry y="-620" width="850" height="960" as="geometry" />
        </mxCell>
        <mxCell id="MkLi55oCJSR5UWqO5x4M-3" value="Page 1" style="strokeWidth=1;shadow=0;dashed=0;align=center;html=1;shape=mxgraph.mockup.containers.anchor;fontSize=17;fontColor=#666666;align=left;" vertex="1" parent="MkLi55oCJSR5UWqO5x4M-2">
          <mxGeometry x="60" y="12" width="110" height="26" as="geometry" />
        </mxCell>
        <mxCell id="MkLi55oCJSR5UWqO5x4M-4" value="https://www.draw.io" style="strokeWidth=1;shadow=0;dashed=0;align=center;html=1;shape=mxgraph.mockup.containers.anchor;rSize=0;fontSize=17;fontColor=#666666;align=left;" vertex="1" parent="MkLi55oCJSR5UWqO5x4M-2">
          <mxGeometry x="130" y="60" width="250" height="26" as="geometry" />
        </mxCell>
        <mxCell id="MkLi55oCJSR5UWqO5x4M-6" value="" style="rounded=0;whiteSpace=wrap;html=1;shadow=0;fillColor=#FFFFFF;" vertex="1" parent="MkLi55oCJSR5UWqO5x4M-2">
          <mxGeometry x="15" y="120" width="820" height="40" as="geometry" />
        </mxCell>
        <mxCell id="MkLi55oCJSR5UWqO5x4M-7" value="homepage&amp;nbsp;" style="text;html=1;strokeColor=none;fillColor=none;align=center;verticalAlign=middle;whiteSpace=wrap;rounded=0;shadow=0;" vertex="1" parent="MkLi55oCJSR5UWqO5x4M-2">
          <mxGeometry x="60" y="130" width="40" height="20" as="geometry" />
        </mxCell>
        <mxCell id="MkLi55oCJSR5UWqO5x4M-8" value="hobbies and interest&amp;nbsp;&amp;nbsp;" style="text;html=1;strokeColor=none;fillColor=none;align=center;verticalAlign=middle;whiteSpace=wrap;rounded=0;shadow=0;" vertex="1" parent="MkLi55oCJSR5UWqO5x4M-2">
          <mxGeometry x="230" y="130" width="130" height="20" as="geometry" />
        </mxCell>
        <mxCell id="MkLi55oCJSR5UWqO5x4M-9" value="culture&amp;nbsp;" style="text;html=1;strokeColor=none;fillColor=none;align=center;verticalAlign=middle;whiteSpace=wrap;rounded=0;shadow=0;" vertex="1" parent="MkLi55oCJSR5UWqO5x4M-2">
          <mxGeometry x="450" y="130" width="40" height="20" as="geometry" />
        </mxCell>
        <mxCell id="MkLi55oCJSR5UWqO5x4M-10" value="contact me&amp;nbsp;" style="text;html=1;strokeColor=none;fillColor=none;align=center;verticalAlign=middle;whiteSpace=wrap;rounded=0;shadow=0;" vertex="1" parent="MkLi55oCJSR5UWqO5x4M-2">
          <mxGeometry x="620" y="130" width="90" height="20" as="geometry" />
        </mxCell>
        <mxCell id="MkLi55oCJSR5UWqO5x4M-11" value="" style="whiteSpace=wrap;html=1;aspect=fixed;shadow=0;fillColor=#FFFFFF;" vertex="1" parent="MkLi55oCJSR5UWqO5x4M-2">
          <mxGeometry x="40" y="220" width="130" height="130" as="geometry" />
        </mxCell>
        <mxCell id="MkLi55oCJSR5UWqO5x4M-12" value="" style="shape=mxgraph.cisco.people.man_woman;html=1;pointerEvents=1;dashed=0;fillColor=#036897;strokeColor=#ffffff;strokeWidth=2;verticalLabelPosition=bottom;verticalAlign=top;align=center;outlineConnect=0;shadow=0;" vertex="1" parent="MkLi55oCJSR5UWqO5x4M-2">
          <mxGeometry x="60" y="227.5" width="100" height="115" as="geometry" />
        </mxCell>
        <mxCell id="MkLi55oCJSR5UWqO5x4M-13" value="" style="rounded=0;whiteSpace=wrap;html=1;shadow=0;fillColor=#FFFFFF;" vertex="1" parent="MkLi55oCJSR5UWqO5x4M-2">
          <mxGeometry x="430" y="210" width="370" height="150" as="geometry" />
        </mxCell>
        <mxCell id="MkLi55oCJSR5UWqO5x4M-14" value="" style="rounded=0;whiteSpace=wrap;html=1;shadow=0;fillColor=#FFFFFF;" vertex="1" parent="MkLi55oCJSR5UWqO5x4M-2">
          <mxGeometry x="30" y="400" width="340" height="130" as="geometry" />
        </mxCell>
        <mxCell id="MkLi55oCJSR5UWqO5x4M-15" value="" style="rounded=0;whiteSpace=wrap;html=1;shadow=0;fillColor=#FFFFFF;" vertex="1" parent="MkLi55oCJSR5UWqO5x4M-2">
          <mxGeometry x="90" y="650" width="680" height="190" as="geometry" />
        </mxCell>
      </root>
    </mxGraphModel>
  </diagram>
</mxfile>
